:version 1.10
:name ASF
:units
  mass 1
  length 1
  angle deg
:documentation
  ASF file generated by Kaydara
:root
  axis xyz
  order  tx ty tz rx ry rz
  position 0 0 0
  orientation 0 0 0
:bonedata
  begin
    id 1
    name RightUpLegDummy
    direction -0.718183 -0.695806 0.00816078
    length 4.904
    axis 0 0 0 xyz
  end
  begin
    id 2
    name RightUpLeg
    direction -0.00334265 -0.999142 0.0412837
    length 17.4976
    axis -0.59612 0.00940841 -0.192072 xyz
    dof rx ry rz
  end
  begin
    id 3
    name RightLeg
    direction 0.000365068 -0.988824 -0.149089
    length 16.5821
    axis 6.58657 0.0604092 -0.318554 xyz
    dof rx ry rz
  end
  begin
    id 4
    name RightFoot
    direction 0.00079069 -0.460991 0.887405
    length 3.77069
    axis 0.000105557 -0.120464 -0.188919 xyz
    dof rx ry rz
  end
  begin
    id 5
    name RightToes
    direction 0.00124768 -0.014065 0.9999
    length 3.85082
    axis 0.00053932 0.542178 -0.142707 xyz
    dof rx ry rz
  end
  begin
    id 6
    name SpineDummy
    direction 8.3039e-015 1 4.58682e-016
    length 4.6813
    axis 0 0 0 xyz
  end
  begin
    id 7
    name Spine
    direction 4.12799e-006 0.999988 0.00494944
    length 10.1015
    axis -0.00149944 0.000129667 -0.000235877 xyz
    dof rx ry rz
  end
  begin
    id 8
    name Spine1
    direction 0 0 0
    length 0
    axis -0.00160567 0.000129431 -0.000308381 xyz
    dof rx ry rz
  end
  begin
    id 9
    name HEadDummy
    direction 5.38513e-006 0.999999 0.00127044
    length 3.43865
    axis -0.00160567 0.000129431 -0.000308381 xyz
  end
  begin
    id 10
    name HEad
    direction -0.0226495 0.980942 0.192974
    length 5.12695
    axis -0.00160642 -0.114462 -0.000307946 xyz
    dof rx ry rz
  end
  begin
    id 11
    name LeftShoulder1Dummy
    direction 0.99889 -0.0402564 -0.0244456
    length 3.5433
    axis -0.00160567 0.000129431 -0.000308381 xyz
  end
  begin
    id 12
    name LeftShoulder1
    direction 0.999464 -0.00142945 0.0326977
    length 4.05031
    axis 0.393425 -0.0796525 -0.0507861 xyz
    dof rx ry rz
  end
  begin
    id 13
    name LeftArm
    direction 0.998564 -0.000899612 -0.053557
    length 10.3537
    axis -22.9476 0.126974 0.960871 xyz
    dof rx ry rz
  end
  begin
    id 14
    name LeftForeArm
    direction 0.998903 0.00865904 0.0460121
    length 8.70632
    axis -9.91856 -0.0656997 -0.178106 xyz
    dof rx ry rz
  end
  begin
    id 15
    name LeftHand
    direction 0.992938 -0.0411687 0.11126
    length 5.32135
    axis -0.00981066 -0.00340928 0.18486 xyz
    dof rx ry rz
  end
  begin
    id 16
    name RightShoulderDummy
    direction -0.998891 -0.0402456 -0.0244411
    length 3.5433
    axis -0.00160567 0.000129431 -0.000308381 xyz
  end
  begin
    id 17
    name RightShoulder
    direction -0.999353 -0.00388479 0.0357579
    length 4.05031
    axis 1.48787 0.256014 0.157284 xyz
    dof rx ry rz
  end
  begin
    id 18
    name RightArm
    direction -0.998583 -0.000660455 -0.0532032
    length 10.3947
    axis -22.4211 -0.109147 -0.943573 xyz
    dof rx ry rz
  end
  begin
    id 19
    name RightForeArm
    direction -0.998898 0.00868588 0.0461311
    length 8.68355
    axis -9.92343 0.0658342 0.178556 xyz
    dof rx ry rz
  end
  begin
    id 20
    name RightHand
    direction -0.992843 -0.0414545 0.112004
    length 5.28593
    axis -0.00982288 0.00332907 -0.185539 xyz
    dof rx ry rz
  end
  begin
    id 21
    name LeftUpLegDummy
    direction 0.718183 -0.695806 0.00816078
    length 4.904
    axis 0 0 0 xyz
  end
  begin
    id 22
    name LeftUpLeg
    direction 0.00445374 -0.999139 0.0412407
    length 17.4976
    axis -0.593655 -0.0138231 0.255969 xyz
    dof rx ry rz
  end
  begin
    id 23
    name LeftLeg
    direction -0.00154847 -0.988829 -0.149046
    length 16.5821
    axis 6.5841 -0.0555156 0.250722 xyz
    dof rx ry rz
  end
  begin
    id 24
    name LeftFoot
    direction -0.00417678 -0.460985 0.887398
    length 3.77069
    axis 5.53694e-005 4.88088e-005 -0.000136194 xyz
    dof rx ry rz
  end
  begin
    id 25
    name LeftToes
    direction 0.00818061 -0.00485256 0.999955
    length 3.85048
    axis 6.41179e-005 4.88477e-005 -0.000136145 xyz
    dof rx ry rz
  end
:hierarchy
  begin
    root RightUpLegDummy SpineDummy LeftUpLegDummy
    RightUpLegDummy RightUpLeg
    RightUpLeg RightLeg
    RightLeg RightFoot
    RightFoot RightToes
    SpineDummy Spine
    Spine Spine1
    Spine1 HEadDummy LeftShoulder1Dummy RightShoulderDummy
    HEadDummy HEad
    LeftShoulder1Dummy LeftShoulder1
    LeftShoulder1 LeftArm
    LeftArm LeftForeArm
    LeftForeArm LeftHand
    RightShoulderDummy RightShoulder
    RightShoulder RightArm
    RightArm RightForeArm
    RightForeArm RightHand
    LeftUpLegDummy LeftUpLeg
    LeftUpLeg LeftLeg
    LeftLeg LeftFoot
    LeftFoot LeftToes
  end

:SAMPLES-PER-SECOND 30
:FULLY-SPECIFIED
:DEGREES
1
root  -78.4379 40.4079 -0.500753 -39.9444 88.506 -42.1447
RightUpLeg  -2.93293 2.7312 3.43662
RightLeg  0.765743 6.93963 0.155499
RightFoot  -1.3408 0.353324 -3.45327
RightToes  -6.40286e-010 -1.59028e-015 9.93923e-017
Spine  -12.7034 -0.0221194 2.20239
Spine1  12.6735 0.0838776 -1.64969
HEad  -8.25456 0.759752 0.362637
LeftShoulder1  9.93923e-017 0 1.22299e-017
LeftArm  15.3231 42.8845 -79.4277
LeftForeArm  -34.3532 -19.7432 2.84402
LeftHand  0.965286 6.79504 -3.52193
RightShoulder  1.98785e-016 -4.96962e-017 1.55301e-017
RightArm  22.1889 -46.5296 85.7652
RightForeArm  -46.4933 19.7357 -12.0429
RightHand  1.13482 -10.5772 -4.35621
LeftUpLeg  -3.86211 -0.250682 -0.875178
LeftLeg  1.75972 -6.97284 -0.337344
LeftFoot  -1.02654 -0.121299 1.12218
LeftToes  8.73142e-011 -6.07963e-011 6.03181e-012
2
root  -78.4361 40.4079 -0.500753 -40.3961 88.5209 -42.6175
RightUpLeg  -2.95323 2.7312 3.43662
RightLeg  0.764749 6.92018 0.158299
RightFoot  -1.34934 0.35319 -3.45185
RightToes  -6.40286e-010 -1.59028e-015 9.93923e-017
Spine  -12.745 -0.0333087 2.23712
Spine1  12.6819 0.0829849 -1.70178
HEad  -8.26843 0.734515 0.359111
LeftShoulder1  9.93923e-017 0 1.22299e-017
LeftArm  15.3298 42.9087 -79.4032
LeftForeArm  -34.0357 -19.6975 2.78936
LeftHand  0.97308 6.86143 -3.7536
RightShoulder  1.98785e-016 -4.96962e-017 1.55301e-017
RightArm  22.2257 -46.5394 85.774
RightForeArm  -46.5314 19.7414 -12.0483
RightHand  1.13858 -10.5551 -4.46517
LeftUpLeg  -3.88145 -0.259128 -0.875568
LeftLeg  1.75465 -6.97864 -0.336497
LeftFoot  -1.02646 -0.118237 1.09179
LeftToes  8.73142e-011 -6.07963e-011 6.03181e-012
3
root  -78.4319 40.4079 -0.501237 -41.169 88.5411 -43.4152
RightUpLeg  -2.96171 2.73119 3.43672
RightLeg  0.748459 6.8923 0.163653
RightFoot  -1.35071 0.352424 -3.44377
RightToes  -6.40286e-010 -1.59028e-015 9.93923e-017
Spine  -12.7801 -0.04342 2.29714
Spine1  12.6478 0.0832519 -1.776
HEad  -8.35064 0.660982 0.438459
LeftShoulder1  9.93923e-017 0 1.22299e-017
LeftArm  15.9042 42.9645 -79.417
LeftForeArm  -33.7061 -19.71 2.78704
LeftHand  0.973816 6.8521 -4.18122
RightShoulder  1.98785e-016 -4.96962e-017 1.55301e-017
RightArm  22.2483 -46.5863 85.7552
RightForeArm  -46.5632 19.7406 -12.0218
RightHand  1.14477 -10.5366 -4.65776
LeftUpLeg  -3.89975 -0.268962 -0.87547
LeftLeg  1.74397 -6.99202 -0.33454
LeftFoot  -1.02369 -0.116609 1.07563
LeftToes  8.73142e-011 -6.07963e-011 6.03181e-012
4
root  -78.4274 40.4083 -0.502897 -41.829 88.5471 -44.085
RightUpLeg  -2.93535 2.73059 3.4395
RightLeg  0.693457 6.87914 0.173379
RightFoot  -1.33007 0.351113 -3.42994
RightToes  -6.40286e-010 -1.59028e-015 9.93923e-017
Spine  -12.7909 -0.0406426 2.34801
Spine1  12.5904 0.0891965 -1.81643
HEad  -8.46354 0.530282 0.555308
LeftShoulder1  9.93923e-017 0 1.22299e-017
LeftArm  17.5411 43.042 -79.5614
LeftForeArm  -34.4612 -19.9523 3.01258
LeftHand  0.967732 6.78054 -4.33364
RightShoulder  1.98785e-016 -4.96962e-017 1.55301e-017
RightArm  22.1842 -46.6479 85.7078
RightForeArm  -46.5364 19.7312 -11.9389
RightHand  1.14733 -10.5517 -4.71328
LeftUpLeg  -3.89841 -0.263735 -0.869363
LeftLeg  1.72976 -7.00951 -0.331982
LeftFoot  -1.01352 -0.117975 1.08918
LeftToes  8.73142e-011 -6.07963e-011 6.03181e-012
5
root  -78.4251 40.4095 -0.503649 -42.1549 88.5339 -44.4191
RightUpLeg  -2.90931 2.7329 3.45156
RightLeg  0.633016 6.88004 0.184063
RightFoot  -1.30382 0.350514 -3.42363
RightToes  -6.40286e-010 -1.59028e-015 9.93923e-017
Spine  -12.8261 -0.0272787 2.37752
Spine1  12.5827 0.0975632 -1.81692
HEad  -8.59474 0.473464 0.597239
LeftShoulder1  9.93923e-017 0 1.22299e-017
LeftArm  19.5568 43.1363 -79.7916
LeftForeArm  -36.0258 -20.3159 3.37925
LeftHand  0.964927 6.77519 -4.13184
RightShoulder  1.98785e-016 -4.96962e-017 1.55301e-017
RightArm  22.1432 -46.6868 85.6632
RightForeArm  -46.5551 19.7261 -11.8863
RightHand  1.14902 -10.5928 -4.61646
LeftUpLeg  -3.9057 -0.249588 -0.852198
LeftLeg  1.7337 -7.01888 -0.329331
LeftFoot  -1.01341 -0.118153 1.09095
LeftToes  8.73142e-011 -6.07963e-011 6.03181e-012
6
root  -78.425 40.4103 -0.504658 -42.2092 88.5135 -44.491
RightUpLeg  -2.91473 2.75012 3.46874
RightLeg  0.603693 6.87786 0.182172
RightFoot  -1.29233 0.350994 -3.42869
RightToes  -6.40286e-010 -1.59028e-015 9.93923e-017
Spine  -12.8781 -0.0139998 2.40071
Spine1  12.6065 0.106367 -1.81602
HEad  -8.77774 0.600955 0.548421
LeftShoulder1  9.93923e-017 0 1.22299e-017
LeftArm  20.8028 43.2769 -79.9944
LeftForeArm  -36.9725 -20.5499 3.64466
LeftHand  0.966874 6.7963 -4.00529
RightShoulder  1.98785e-016 -4.96962e-017 1.55301e-017
RightArm  22.2861 -46.7145 85.636
RightForeArm  -46.7631 19.7429 -11.9596
RightHand  1.15513 -10.6504 -4.573
LeftUpLeg  -3.9376 -0.24499 -0.839623
LeftLeg  1.76255 -7.01289 -0.322597
LeftFoot  -1.03894 -0.11544 1.06403
LeftToes  8.73142e-011 -6.07963e-011 6.03181e-012
